<svg xmlns="http://www.w3.org/2000/svg" xmlns:xlink="http://www.w3.org/1999/xlink" width="500" zoomAndPan="magnify" viewBox="0 0 375 374.999991" height="500" preserveAspectRatio="xMidYMid meet" version="1.0"><defs><clipPath id="58d01a45cd"><path d="M 193 54 L 321.3125 54 L 321.3125 321 L 193 321 Z M 193 54 " clip-rule="nonzero"/></clipPath><clipPath id="016edccfae"><path d="M 53.5625 53.226562 L 181 53.226562 L 181 321 L 53.5625 321 Z M 53.5625 53.226562 " clip-rule="nonzero"/></clipPath></defs><g clip-path="url(#58d01a45cd)"><path fill="#ffffff" d="M 320.304688 172.144531 C 320.199219 171.339844 320.09375 170.59375 319.933594 169.898438 C 319.558594 168.347656 318.914062 167.0625 317.363281 165.886719 C 315.597656 164.546875 313.40625 163.851562 311.265625 163.316406 C 309.769531 162.945312 308.273438 162.570312 306.988281 161.714844 C 305.492188 160.644531 304.527344 159.039062 303.457031 157.542969 C 301.425781 154.761719 298.109375 154.117188 296.023438 151.390625 C 294.042969 148.769531 293.296875 145.453125 292.011719 142.457031 C 291.15625 140.371094 290.246094 138.179688 290.140625 135.878906 C 290.03125 132.347656 291.851562 128.765625 290.886719 125.394531 C 290.621094 124.378906 290.085938 123.46875 289.925781 122.453125 C 289.605469 120.582031 291.101562 119.671875 292.011719 118.28125 C 292.921875 116.835938 293.777344 115.445312 294.152344 113.734375 C 295.21875 108.332031 292.546875 104.695312 288.910156 101.164062 C 284.148438 96.511719 279.921875 91.164062 275.054688 86.617188 C 271.953125 83.726562 268.15625 80.894531 263.824219 80.519531 C 259.007812 80.089844 255.90625 84.582031 251.09375 84.050781 C 249.59375 83.886719 248.203125 83.355469 246.761719 83.191406 C 244.140625 82.925781 241.574219 83.886719 239.003906 84.101562 C 236.382812 84.316406 233.550781 83.460938 231.089844 82.550781 C 225.152344 80.304688 220.125 75.972656 216.324219 70.945312 C 214.402344 68.429688 212.796875 65.703125 211.511719 62.867188 C 210.226562 60.03125 209.105469 57.199219 206.269531 55.539062 C 202.578125 53.402344 197.175781 54.042969 193.113281 54.578125 L 193.113281 111.808594 C 194.554688 111.96875 196.214844 111.96875 197.390625 112.128906 C 197.605469 112.183594 197.820312 112.183594 197.980469 112.238281 C 200.546875 112.664062 203.113281 113.039062 205.683594 113.519531 C 210.816406 114.429688 216.21875 115.5 220.710938 118.335938 C 222.585938 119.511719 224.242188 121.0625 225.472656 122.933594 C 226.96875 125.234375 226.808594 128.65625 228.628906 130.582031 C 230.5 132.5625 233.496094 132.242188 235.957031 132.027344 C 237.453125 131.921875 238.953125 131.546875 240.234375 132.242188 C 241.945312 133.257812 243.710938 135.773438 244.996094 137.269531 C 249.917969 142.992188 254.035156 149.410156 257.136719 156.257812 C 258.582031 159.519531 259.8125 162.890625 260.773438 166.3125 C 261.738281 169.789062 263.34375 174.390625 263.019531 178.027344 C 262.859375 179.953125 262.21875 179.523438 260.828125 180.808594 C 259.757812 181.769531 258.957031 183 258.421875 184.339844 C 257.511719 186.746094 257.671875 189.472656 258.742188 191.773438 C 260.027344 194.5 263.234375 195.355469 263.234375 198.351562 C 263.234375 201.988281 261.578125 205.414062 260.5625 208.835938 C 259.0625 213.972656 256.441406 219 254.195312 223.867188 C 252.003906 228.625 249.542969 233.546875 245.90625 237.398438 C 244.355469 239.003906 242.589844 240.394531 240.554688 241.355469 C 237.722656 242.640625 235.367188 242.050781 232.53125 242.425781 C 227.878906 243.066406 226.703125 248.203125 225.257812 251.839844 C 222.90625 257.5625 218.785156 257.617188 213.4375 259.4375 C 209.371094 260.828125 205.253906 261.949219 201.027344 262.75 C 199.851562 262.964844 198.675781 263.179688 197.445312 263.339844 C 196.75 263.445312 196.054688 263.554688 195.359375 263.609375 C 194.824219 263.660156 193.859375 263.660156 193.113281 263.769531 L 193.113281 320.410156 C 193.273438 320.359375 193.433594 320.359375 193.59375 320.304688 C 198.675781 319.34375 205.46875 321.640625 209.425781 317.363281 C 211.457031 315.222656 211.726562 312.066406 213.011719 309.554688 C 214.453125 306.558594 216.59375 303.722656 218.894531 301.316406 C 221.78125 298.160156 225.257812 295.59375 229.054688 293.5625 C 231.890625 292.117188 234.886719 290.671875 238.042969 290.246094 C 241.304688 289.816406 244.355469 291.3125 247.671875 291.261719 C 249.382812 291.261719 251.09375 290.941406 252.75 291.152344 C 255.160156 291.421875 257.246094 292.757812 259.4375 293.773438 C 262.808594 295.324219 266.550781 295.273438 269.761719 293.347656 C 272.917969 291.527344 275.109375 288.425781 277.675781 285.910156 C 281.367188 282.328125 285.058594 278.691406 288.480469 274.894531 C 290.996094 272.113281 293.992188 269.0625 294.632812 265.210938 C 295.328125 261.148438 292.171875 258.207031 291.101562 254.566406 C 290.246094 251.679688 290.886719 248.683594 290.78125 245.742188 C 290.726562 242.265625 289.980469 239.058594 290.675781 235.578125 C 291.476562 231.941406 293.1875 228.519531 295.488281 225.578125 C 298.429688 221.78125 302.226562 218.679688 306.132812 215.894531 C 309.714844 213.328125 313.996094 211.9375 317.472656 209.265625 C 320.09375 207.230469 320.359375 203.914062 320.679688 200.8125 C 321 197.816406 321.214844 194.769531 321.269531 191.71875 C 321.429688 185.195312 321.109375 178.617188 320.304688 172.144531 Z M 315.546875 179.097656 C 315.4375 184.230469 315.4375 189.3125 315.4375 194.449219 C 315.4375 196.375 315.332031 198.246094 315.4375 200.171875 C 315.492188 201.9375 315.8125 203.648438 314.957031 205.304688 C 313.085938 208.941406 308.378906 209.265625 304.957031 208.085938 C 301.53125 206.910156 298.164062 204.609375 294.363281 205.359375 C 289.390625 206.320312 289.390625 211.722656 289.710938 215.734375 C 289.925781 218.195312 290.351562 220.65625 290.515625 223.117188 C 290.726562 227.558594 288.265625 233.867188 284.898438 236.808594 C 282.382812 239.003906 278.851562 239.859375 276.765625 242.535156 C 274.46875 245.367188 273.34375 249.273438 276.179688 252.214844 C 279.015625 255.101562 283.722656 255.261719 287.035156 257.457031 C 292.277344 260.933594 290.085938 266.65625 286.824219 270.828125 C 282.222656 276.710938 275.375 280.347656 270.5625 286.074219 C 268.476562 288.53125 266.765625 290.726562 263.179688 290.457031 C 259.972656 290.191406 257.03125 287.945312 255.53125 285.164062 C 254.089844 282.488281 255.050781 279.441406 252.859375 277.140625 C 250.878906 275.054688 247.992188 274.519531 245.316406 275.214844 C 242.75 275.855469 240.449219 277.515625 239.058594 279.816406 C 238.363281 280.992188 238.363281 282.328125 237.828125 283.503906 C 237.078125 285.324219 235.421875 286.394531 233.65625 287.570312 C 230.554688 289.601562 226.917969 291.367188 223.117188 291.476562 C 219.269531 291.636719 216.539062 288.90625 212.796875 288.90625 C 204.878906 288.960938 203.757812 296.503906 206.699219 302.28125 C 208.089844 305.007812 209.371094 307.46875 208.464844 310.625 C 208.035156 311.960938 207.234375 314.476562 206.164062 315.382812 C 204.71875 316.667969 202.3125 315.917969 200.386719 315.8125 C 199.425781 315.757812 198.460938 315.867188 197.5 315.867188 L 197.5 267.457031 C 198.300781 267.191406 199.15625 267.085938 200.011719 266.976562 C 204.398438 266.441406 208.675781 265.425781 212.847656 264.035156 C 216.96875 262.644531 220.820312 260.503906 224.882812 259.0625 C 227.183594 258.257812 229.644531 257.722656 232.105469 257.722656 C 232.960938 257.722656 233.871094 257.777344 234.78125 257.9375 C 235.796875 258.152344 236.917969 258.417969 237.933594 258.097656 C 240.664062 257.296875 241.679688 253.605469 242.320312 251.253906 C 243.765625 246.382812 245.796875 242.746094 249.113281 238.894531 C 255.640625 231.300781 260.5625 222.261719 263.714844 212.792969 C 265.214844 208.300781 265.75 203.539062 267.566406 199.207031 C 269.011719 195.730469 271.792969 194.019531 273.878906 191.132812 C 276.234375 187.816406 274.039062 184.5 271.6875 181.878906 C 270.617188 180.703125 269.117188 179.632812 268.261719 178.292969 C 267.140625 176.582031 267.191406 174.070312 266.765625 172.035156 C 265.855469 167.488281 264.519531 163.050781 262.859375 158.71875 C 260.773438 153.261719 258.101562 148.074219 254.785156 143.207031 C 252.804688 140.316406 250.613281 137.535156 248.257812 134.914062 C 246.171875 132.617188 242.75 130.261719 242.320312 126.945312 C 241.785156 122.882812 243.175781 120.3125 238.953125 117.691406 C 237.027344 116.460938 234.726562 115.875 232.480469 116.515625 C 230.285156 117.15625 228.253906 117.480469 225.953125 116.835938 C 224.082031 116.300781 222.421875 115.339844 220.710938 114.484375 C 213.757812 110.792969 206.378906 107.957031 198.40625 107.90625 C 198.140625 107.90625 197.765625 107.90625 197.445312 107.851562 L 197.445312 59.496094 C 198.835938 59.390625 200.171875 59.445312 201.5625 59.335938 C 203.007812 59.230469 204.453125 59.125 205.789062 59.710938 C 209.265625 61.15625 209.53125 65.757812 208.515625 68.859375 C 207.714844 71.425781 206.21875 73.671875 205.523438 76.292969 C 204.183594 81.105469 207.820312 87.792969 213.542969 86.457031 C 216.113281 85.867188 218.144531 83.886719 220.710938 83.355469 C 224.136719 82.660156 227.238281 85.332031 230.339844 86.296875 C 232.695312 87.042969 235.207031 87.6875 237.078125 89.398438 C 239.699219 91.910156 239.378906 95.761719 242.589844 98.0625 C 245.53125 100.09375 249.59375 100.042969 252.269531 97.527344 C 254.785156 95.121094 255.160156 91.429688 256.871094 88.542969 C 261.308594 80.945312 268.851562 85.8125 273.183594 90.574219 C 277.515625 95.335938 282.4375 99.507812 286.769531 104.265625 C 290.886719 108.761719 292.011719 115.980469 285.59375 119.082031 C 280.671875 121.4375 272.917969 122.1875 274.359375 129.941406 C 275.484375 135.878906 283.667969 135.34375 286.554688 139.570312 C 288.910156 143.046875 290.566406 147.753906 291.046875 151.925781 C 291.261719 154.066406 291.210938 156.417969 290.566406 158.503906 C 290.03125 160.324219 288.910156 161.820312 289.125 163.851562 C 289.445312 166.792969 292.011719 169.253906 294.738281 170.164062 C 298.484375 171.449219 300.300781 169.683594 303.191406 167.757812 C 305.8125 165.992188 309.339844 165.777344 312.230469 166.957031 C 313.40625 167.4375 315.386719 168.613281 315.972656 169.84375 C 316.667969 171.769531 315.597656 176.902344 315.546875 179.097656 Z M 315.546875 179.097656 " fill-opacity="1" fill-rule="nonzero"/></g><path fill="#ffffff" d="M 197.390625 241.785156 C 197.445312 241.785156 197.445312 241.785156 197.445312 241.785156 C 212.476562 239.429688 226.96875 228.144531 234.671875 215.363281 C 239.113281 207.980469 241.519531 199.527344 242.535156 190.972656 C 243.550781 182.574219 241.410156 174.28125 237.988281 166.632812 C 231.890625 152.996094 220.710938 141.546875 206.75 136.09375 C 204.398438 135.183594 200.707031 133.632812 197.390625 133.363281 C 195.785156 133.203125 194.289062 133.363281 193.113281 134.007812 L 193.113281 154.867188 C 194.554688 155.082031 196 155.402344 197.390625 155.828125 C 202.902344 157.488281 207.875 160.804688 211.886719 164.976562 C 224.507812 178.292969 222.851562 201.722656 208.890625 213.488281 C 206.429688 215.523438 203.703125 217.179688 200.707031 218.355469 C 199.636719 218.785156 198.566406 219.105469 197.445312 219.375 C 197.285156 219.425781 197.175781 219.480469 197.015625 219.480469 C 195.894531 219.746094 194.234375 219.800781 193.164062 220.28125 L 193.164062 241.195312 C 194.183594 241.839844 195.625 242.105469 197.390625 241.785156 Z M 197.390625 241.785156 " fill-opacity="1" fill-rule="nonzero"/><g clip-path="url(#016edccfae)"><path fill="#1d8de4" d="M 172.734375 53.933594 C 167.011719 54.953125 163.90625 58.640625 162.464844 64.203125 C 161.769531 67.039062 161.449219 69.929688 160.753906 72.710938 C 160.21875 74.902344 160.21875 75.597656 158.292969 76.507812 C 156.097656 77.578125 153.53125 78.21875 151.285156 79.074219 C 147.539062 80.519531 143.902344 82.015625 140.214844 83.566406 C 138.394531 84.371094 136.574219 85.171875 134.757812 85.972656 C 132.886719 86.832031 129.941406 89.023438 128.019531 89.078125 C 123.363281 89.238281 118.871094 82.765625 114.859375 81 C 107.585938 77.738281 102.449219 84.476562 97.691406 89.128906 C 94.800781 91.910156 92.019531 94.800781 89.238281 97.6875 C 86.617188 100.363281 82.230469 103.570312 80.628906 106.835938 C 77.847656 112.503906 83.035156 118.496094 86.136719 122.71875 C 86.886719 123.683594 88.007812 124.859375 88.4375 126.035156 C 89.023438 127.640625 88.328125 128.980469 87.632812 130.691406 C 86.136719 134.433594 84.105469 137.910156 82.5 141.546875 C 80.199219 146.628906 79.664062 152.511719 77.257812 157.488281 C 74.902344 162.25 69.554688 161.605469 65.0625 162.460938 C 58.429688 163.746094 55.328125 166.6875 54.523438 173.425781 C 53.5625 181.984375 53.992188 190.648438 53.882812 199.316406 C 53.828125 203.863281 55.382812 209.15625 59.875 211.136719 C 63.617188 212.792969 67.949219 212.472656 71.800781 213.597656 C 77.203125 215.199219 77.203125 218.839844 78.648438 223.597656 C 80.789062 230.980469 85.121094 237.453125 87.792969 244.621094 C 88.4375 246.382812 89.078125 247.453125 88.277344 249.003906 C 87.632812 250.128906 86.296875 251.144531 85.496094 252.160156 C 83.460938 254.730469 81.644531 257.5625 80.679688 260.664062 C 78.273438 268.742188 84.640625 272.699219 89.71875 277.78125 C 95.015625 283.078125 99.9375 289.601562 106.195312 293.773438 C 111.757812 297.464844 118.230469 291.957031 122.507812 288.640625 C 123.578125 287.835938 124.96875 286.339844 126.253906 285.910156 C 127.964844 285.324219 129.460938 286.445312 131.121094 287.25 C 135.183594 289.121094 139.195312 290.941406 143.261719 292.703125 C 147.113281 294.363281 150.964844 295.96875 154.867188 297.464844 C 156.257812 298 158.933594 298.535156 159.949219 299.605469 C 160.753906 300.460938 161.019531 302.386719 161.285156 303.507812 C 162.355469 308.054688 161.929688 313.777344 165.191406 317.46875 C 167.277344 319.824219 169.578125 320.144531 172.464844 320.039062 C 174.605469 319.984375 176.746094 319.875 178.882812 319.875 C 179.578125 319.875 180.222656 319.824219 180.917969 319.824219 L 180.917969 264.089844 C 156.367188 262.429688 134.0625 247.5625 121.386719 226.699219 C 114.699219 215.734375 109.457031 201.453125 109.886719 188.457031 C 110.367188 175.03125 113.738281 161.445312 120.53125 149.839844 C 126.839844 139.035156 135.773438 129.726562 146.308594 122.988281 C 151.660156 119.566406 157.4375 116.785156 163.425781 114.75 C 166.367188 113.789062 169.363281 112.984375 172.414062 112.398438 C 175.195312 111.863281 178.1875 111.917969 180.96875 111.433594 L 180.96875 53.933594 C 180.863281 53.933594 180.808594 53.882812 180.757812 53.882812 C 178.1875 53.347656 175.300781 53.507812 172.734375 53.933594 Z M 172.734375 53.933594 " fill-opacity="1" fill-rule="nonzero"/></g><path fill="#1d8de4" d="M 177.386719 133.097656 C 174.980469 133.203125 172.414062 134.21875 170.167969 135.078125 C 160.964844 138.394531 152.621094 144.0625 146.148438 151.335938 C 133.207031 165.886719 128.5 186.636719 135.023438 205.144531 C 141.925781 224.777344 160.21875 240.179688 181.023438 242.371094 L 181.023438 220.175781 C 180.757812 220.121094 180.4375 220.121094 180.0625 220.121094 C 164.871094 217.554688 154.976562 203.113281 154.386719 188.296875 C 154.121094 181.128906 155.992188 173.75 160.269531 167.917969 C 162.730469 164.601562 165.992188 161.820312 169.363281 159.519531 C 171.609375 158.023438 174.070312 156.953125 176.636719 156.152344 C 177.816406 155.777344 179.046875 155.402344 180.222656 155.082031 C 180.488281 155.027344 180.757812 154.921875 181.023438 154.867188 L 181.023438 132.992188 C 179.472656 133.042969 177.921875 133.097656 177.386719 133.097656 Z M 177.386719 133.097656 " fill-opacity="1" fill-rule="nonzero"/></svg>